<mxfile host="app.diagrams.net" modified="2020-09-19T17:26:23.524Z" agent="5.0 (Windows NT 6.1; Win64; x64) AppleWebKit/537.36 (KHTML, like Gecko) Chrome/85.0.4183.83 Safari/537.36" etag="QR2VPaKfzmqZqKOoRxan" version="13.7.3" type="github">
  <diagram id="xg5gNV89y5DQXlGgBmAt" name="Page-2">
    <mxGraphModel dx="868" dy="482" grid="1" gridSize="10" guides="1" tooltips="1" connect="1" arrows="1" fold="1" page="1" pageScale="1" pageWidth="827" pageHeight="1169" math="0" shadow="0">
      <root>
        <mxCell id="6T4qytOcznfkfAV8j8M5-0" />
        <mxCell id="6T4qytOcznfkfAV8j8M5-1" parent="6T4qytOcznfkfAV8j8M5-0" />
        <mxCell id="LZpc2RMVWrcLRysx4tXl-6" value="Triangle" style="swimlane;fontStyle=1;align=center;verticalAlign=top;childLayout=stackLayout;horizontal=1;startSize=26;horizontalStack=0;resizeParent=1;resizeParentMax=0;resizeLast=0;collapsible=1;marginBottom=0;" vertex="1" parent="6T4qytOcznfkfAV8j8M5-1">
          <mxGeometry x="40" y="120" width="200" height="150" as="geometry" />
        </mxCell>
        <mxCell id="LZpc2RMVWrcLRysx4tXl-7" value="- point1: Point&#xa;- point2: Point&#xa;- point3: Point" style="text;strokeColor=none;fillColor=none;align=left;verticalAlign=top;spacingLeft=4;spacingRight=4;overflow=hidden;rotatable=0;points=[[0,0.5],[1,0.5]];portConstraint=eastwest;" vertex="1" parent="LZpc2RMVWrcLRysx4tXl-6">
          <mxGeometry y="26" width="200" height="44" as="geometry" />
        </mxCell>
        <mxCell id="LZpc2RMVWrcLRysx4tXl-8" value="" style="line;strokeWidth=1;fillColor=none;align=left;verticalAlign=middle;spacingTop=-1;spacingLeft=3;spacingRight=3;rotatable=0;labelPosition=right;points=[];portConstraint=eastwest;" vertex="1" parent="LZpc2RMVWrcLRysx4tXl-6">
          <mxGeometry y="70" width="200" height="10" as="geometry" />
        </mxCell>
        <mxCell id="LZpc2RMVWrcLRysx4tXl-9" value="+ getPerimetr():double&#xa;+ getArea(): double&#xa;+ getLengthSide(Point,Point):double&#xa;+ toString:String" style="text;strokeColor=none;fillColor=none;align=left;verticalAlign=top;spacingLeft=4;spacingRight=4;overflow=hidden;rotatable=0;points=[[0,0.5],[1,0.5]];portConstraint=eastwest;" vertex="1" parent="LZpc2RMVWrcLRysx4tXl-6">
          <mxGeometry y="80" width="200" height="70" as="geometry" />
        </mxCell>
        <mxCell id="LZpc2RMVWrcLRysx4tXl-11" value="Rectangle" style="swimlane;fontStyle=1;align=center;verticalAlign=top;childLayout=stackLayout;horizontal=1;startSize=26;horizontalStack=0;resizeParent=1;resizeParentMax=0;resizeLast=0;collapsible=1;marginBottom=0;" vertex="1" parent="6T4qytOcznfkfAV8j8M5-1">
          <mxGeometry x="540" y="120" width="210" height="170" as="geometry">
            <mxRectangle x="250" y="120" width="90" height="26" as="alternateBounds" />
          </mxGeometry>
        </mxCell>
        <mxCell id="LZpc2RMVWrcLRysx4tXl-12" value="- point1: Point&#xa;- point2: Point&#xa;- point3: Point&#xa;- point4: Point&#xa;" style="text;strokeColor=none;fillColor=none;align=left;verticalAlign=top;spacingLeft=4;spacingRight=4;overflow=hidden;rotatable=0;points=[[0,0.5],[1,0.5]];portConstraint=eastwest;" vertex="1" parent="LZpc2RMVWrcLRysx4tXl-11">
          <mxGeometry y="26" width="210" height="64" as="geometry" />
        </mxCell>
        <mxCell id="LZpc2RMVWrcLRysx4tXl-13" value="" style="line;strokeWidth=1;fillColor=none;align=left;verticalAlign=middle;spacingTop=-1;spacingLeft=3;spacingRight=3;rotatable=0;labelPosition=right;points=[];portConstraint=eastwest;" vertex="1" parent="LZpc2RMVWrcLRysx4tXl-11">
          <mxGeometry y="90" width="210" height="10" as="geometry" />
        </mxCell>
        <mxCell id="LZpc2RMVWrcLRysx4tXl-14" value="+ getPerimetr():double&#xa;+ getArea(): double&#xa;+ getSideLength(Point,Point):double&#xa;+ toString:String" style="text;strokeColor=none;fillColor=none;align=left;verticalAlign=top;spacingLeft=4;spacingRight=4;overflow=hidden;rotatable=0;points=[[0,0.5],[1,0.5]];portConstraint=eastwest;" vertex="1" parent="LZpc2RMVWrcLRysx4tXl-11">
          <mxGeometry y="100" width="210" height="70" as="geometry" />
        </mxCell>
        <mxCell id="LZpc2RMVWrcLRysx4tXl-2" value="Shape" style="swimlane;fontStyle=1;align=center;verticalAlign=top;childLayout=stackLayout;horizontal=1;startSize=26;horizontalStack=0;resizeParent=1;resizeParentMax=0;resizeLast=0;collapsible=1;marginBottom=0;" vertex="1" parent="6T4qytOcznfkfAV8j8M5-1">
          <mxGeometry x="310" y="10" width="160" height="70" as="geometry" />
        </mxCell>
        <mxCell id="LZpc2RMVWrcLRysx4tXl-44" value="Extends" style="endArrow=block;endSize=16;endFill=0;html=1;exitX=0.5;exitY=0;exitDx=0;exitDy=0;" edge="1" parent="LZpc2RMVWrcLRysx4tXl-2" source="LZpc2RMVWrcLRysx4tXl-6">
          <mxGeometry width="160" relative="1" as="geometry">
            <mxPoint x="-150" y="40" as="sourcePoint" />
            <mxPoint y="40" as="targetPoint" />
          </mxGeometry>
        </mxCell>
        <mxCell id="LZpc2RMVWrcLRysx4tXl-45" value="Extends" style="endArrow=block;endSize=16;endFill=0;html=1;exitX=0.5;exitY=0;exitDx=0;exitDy=0;" edge="1" parent="LZpc2RMVWrcLRysx4tXl-2" source="LZpc2RMVWrcLRysx4tXl-11">
          <mxGeometry width="160" relative="1" as="geometry">
            <mxPoint x="430" y="100" as="sourcePoint" />
            <mxPoint x="160" y="40" as="targetPoint" />
          </mxGeometry>
        </mxCell>
        <mxCell id="LZpc2RMVWrcLRysx4tXl-5" value="getPerimetr(double):&#xa;getArea(double):" style="text;strokeColor=none;fillColor=none;align=left;verticalAlign=top;spacingLeft=4;spacingRight=4;overflow=hidden;rotatable=0;points=[[0,0.5],[1,0.5]];portConstraint=eastwest;" vertex="1" parent="LZpc2RMVWrcLRysx4tXl-2">
          <mxGeometry y="26" width="160" height="44" as="geometry" />
        </mxCell>
        <mxCell id="LZpc2RMVWrcLRysx4tXl-47" style="edgeStyle=orthogonalEdgeStyle;rounded=0;orthogonalLoop=1;jettySize=auto;html=1;exitX=0;exitY=0.5;exitDx=0;exitDy=0;entryX=0;entryY=0.045;entryDx=0;entryDy=0;entryPerimeter=0;" edge="1" parent="LZpc2RMVWrcLRysx4tXl-2" source="LZpc2RMVWrcLRysx4tXl-5" target="LZpc2RMVWrcLRysx4tXl-5">
          <mxGeometry relative="1" as="geometry" />
        </mxCell>
        <mxCell id="LZpc2RMVWrcLRysx4tXl-46" value="Extends" style="endArrow=block;endSize=16;endFill=0;html=1;" edge="1" parent="6T4qytOcznfkfAV8j8M5-1" source="LZpc2RMVWrcLRysx4tXl-15" target="LZpc2RMVWrcLRysx4tXl-5">
          <mxGeometry width="160" relative="1" as="geometry">
            <mxPoint x="360" y="100" as="sourcePoint" />
            <mxPoint x="520" y="100" as="targetPoint" />
          </mxGeometry>
        </mxCell>
        <mxCell id="LZpc2RMVWrcLRysx4tXl-15" value="Circle" style="swimlane;fontStyle=1;align=center;verticalAlign=top;childLayout=stackLayout;horizontal=1;startSize=26;horizontalStack=0;resizeParent=1;resizeParentMax=0;resizeLast=0;collapsible=1;marginBottom=0;" vertex="1" parent="6T4qytOcznfkfAV8j8M5-1">
          <mxGeometry x="305" y="140" width="170" height="150" as="geometry" />
        </mxCell>
        <mxCell id="LZpc2RMVWrcLRysx4tXl-16" value="- point: Point&#xa;- center: Point&#xa;" style="text;strokeColor=none;fillColor=none;align=left;verticalAlign=top;spacingLeft=4;spacingRight=4;overflow=hidden;rotatable=0;points=[[0,0.5],[1,0.5]];portConstraint=eastwest;" vertex="1" parent="LZpc2RMVWrcLRysx4tXl-15">
          <mxGeometry y="26" width="170" height="44" as="geometry" />
        </mxCell>
        <mxCell id="LZpc2RMVWrcLRysx4tXl-17" value="" style="line;strokeWidth=1;fillColor=none;align=left;verticalAlign=middle;spacingTop=-1;spacingLeft=3;spacingRight=3;rotatable=0;labelPosition=right;points=[];portConstraint=eastwest;" vertex="1" parent="LZpc2RMVWrcLRysx4tXl-15">
          <mxGeometry y="70" width="170" height="10" as="geometry" />
        </mxCell>
        <mxCell id="LZpc2RMVWrcLRysx4tXl-18" value="+ getPerimetr():double&#xa;+ getArea(): double&#xa;+ getRadius():double&#xa;+ toString:String" style="text;strokeColor=none;fillColor=none;align=left;verticalAlign=top;spacingLeft=4;spacingRight=4;overflow=hidden;rotatable=0;points=[[0,0.5],[1,0.5]];portConstraint=eastwest;" vertex="1" parent="LZpc2RMVWrcLRysx4tXl-15">
          <mxGeometry y="80" width="170" height="70" as="geometry" />
        </mxCell>
        <mxCell id="LZpc2RMVWrcLRysx4tXl-48" value="" style="endArrow=diamondThin;endFill=1;endSize=24;html=1;exitX=0.585;exitY=1.043;exitDx=0;exitDy=0;exitPerimeter=0;entryX=0.006;entryY=0.235;entryDx=0;entryDy=0;entryPerimeter=0;" edge="1" parent="6T4qytOcznfkfAV8j8M5-1" source="LZpc2RMVWrcLRysx4tXl-9" target="LZpc2RMVWrcLRysx4tXl-26">
          <mxGeometry width="160" relative="1" as="geometry">
            <mxPoint x="200" y="310" as="sourcePoint" />
            <mxPoint x="300" y="360" as="targetPoint" />
          </mxGeometry>
        </mxCell>
        <mxCell id="LZpc2RMVWrcLRysx4tXl-50" value="" style="endArrow=diamondThin;endFill=1;endSize=24;html=1;exitX=0.457;exitY=0.986;exitDx=0;exitDy=0;exitPerimeter=0;entryX=0.994;entryY=0.147;entryDx=0;entryDy=0;entryPerimeter=0;" edge="1" parent="6T4qytOcznfkfAV8j8M5-1" source="LZpc2RMVWrcLRysx4tXl-14" target="LZpc2RMVWrcLRysx4tXl-26">
          <mxGeometry width="160" relative="1" as="geometry">
            <mxPoint x="540" y="360" as="sourcePoint" />
            <mxPoint x="700" y="360" as="targetPoint" />
          </mxGeometry>
        </mxCell>
        <mxCell id="LZpc2RMVWrcLRysx4tXl-51" value="" style="endArrow=diamondThin;endFill=1;endSize=24;html=1;entryX=0.563;entryY=0;entryDx=0;entryDy=0;entryPerimeter=0;" edge="1" parent="6T4qytOcznfkfAV8j8M5-1" target="LZpc2RMVWrcLRysx4tXl-25">
          <mxGeometry width="160" relative="1" as="geometry">
            <mxPoint x="409.5" y="290" as="sourcePoint" />
            <mxPoint x="540" y="348" as="targetPoint" />
          </mxGeometry>
        </mxCell>
        <mxCell id="LZpc2RMVWrcLRysx4tXl-25" value="Point&#xa;" style="swimlane;fontStyle=1;align=center;verticalAlign=top;childLayout=stackLayout;horizontal=1;startSize=26;horizontalStack=0;resizeParent=1;resizeParentMax=0;resizeLast=0;collapsible=1;marginBottom=0;" vertex="1" parent="6T4qytOcznfkfAV8j8M5-1">
          <mxGeometry x="370" y="368" width="160" height="94" as="geometry" />
        </mxCell>
        <mxCell id="LZpc2RMVWrcLRysx4tXl-26" value="- x: double&#xa;- y: double " style="text;strokeColor=none;fillColor=none;align=left;verticalAlign=top;spacingLeft=4;spacingRight=4;overflow=hidden;rotatable=0;points=[[0,0.5],[1,0.5]];portConstraint=eastwest;" vertex="1" parent="LZpc2RMVWrcLRysx4tXl-25">
          <mxGeometry y="26" width="160" height="34" as="geometry" />
        </mxCell>
        <mxCell id="LZpc2RMVWrcLRysx4tXl-27" value="" style="line;strokeWidth=1;fillColor=none;align=left;verticalAlign=middle;spacingTop=-1;spacingLeft=3;spacingRight=3;rotatable=0;labelPosition=right;points=[];portConstraint=eastwest;" vertex="1" parent="LZpc2RMVWrcLRysx4tXl-25">
          <mxGeometry y="60" width="160" height="8" as="geometry" />
        </mxCell>
        <mxCell id="LZpc2RMVWrcLRysx4tXl-28" value="+ toString():String" style="text;strokeColor=none;fillColor=none;align=left;verticalAlign=top;spacingLeft=4;spacingRight=4;overflow=hidden;rotatable=0;points=[[0,0.5],[1,0.5]];portConstraint=eastwest;" vertex="1" parent="LZpc2RMVWrcLRysx4tXl-25">
          <mxGeometry y="68" width="160" height="26" as="geometry" />
        </mxCell>
        <mxCell id="_efOl3ZjGvctcoo_71RF-0" value="" style="endArrow=block;dashed=1;endFill=0;endSize=12;html=1;entryX=0.32;entryY=1.014;entryDx=0;entryDy=0;entryPerimeter=0;exitX=0.5;exitY=0;exitDx=0;exitDy=0;" edge="1" parent="6T4qytOcznfkfAV8j8M5-1" source="LZpc2RMVWrcLRysx4tXl-20" target="LZpc2RMVWrcLRysx4tXl-9">
          <mxGeometry width="160" relative="1" as="geometry">
            <mxPoint x="-10" y="310" as="sourcePoint" />
            <mxPoint x="150" y="310" as="targetPoint" />
          </mxGeometry>
        </mxCell>
        <mxCell id="_efOl3ZjGvctcoo_71RF-1" value="" style="endArrow=block;dashed=1;endFill=0;endSize=12;html=1;entryX=-0.01;entryY=0.814;entryDx=0;entryDy=0;entryPerimeter=0;exitX=0.972;exitY=-0.057;exitDx=0;exitDy=0;exitPerimeter=0;" edge="1" parent="6T4qytOcznfkfAV8j8M5-1" source="LZpc2RMVWrcLRysx4tXl-23" target="LZpc2RMVWrcLRysx4tXl-14">
          <mxGeometry width="160" relative="1" as="geometry">
            <mxPoint x="220" y="340" as="sourcePoint" />
            <mxPoint x="380" y="340" as="targetPoint" />
          </mxGeometry>
        </mxCell>
        <mxCell id="_efOl3ZjGvctcoo_71RF-2" value="" style="endArrow=block;dashed=1;endFill=0;endSize=12;html=1;" edge="1" parent="6T4qytOcznfkfAV8j8M5-1">
          <mxGeometry width="160" relative="1" as="geometry">
            <mxPoint x="190" y="350" as="sourcePoint" />
            <mxPoint x="305" y="270" as="targetPoint" />
          </mxGeometry>
        </mxCell>
        <mxCell id="LZpc2RMVWrcLRysx4tXl-20" value="Table" style="swimlane;fontStyle=1;align=center;verticalAlign=top;childLayout=stackLayout;horizontal=1;startSize=26;horizontalStack=0;resizeParent=1;resizeParentMax=0;resizeLast=0;collapsible=1;marginBottom=0;" vertex="1" parent="6T4qytOcznfkfAV8j8M5-1">
          <mxGeometry x="10" y="320" width="180" height="130" as="geometry" />
        </mxCell>
        <mxCell id="LZpc2RMVWrcLRysx4tXl-21" value="- table[4]: Shape" style="text;strokeColor=none;fillColor=none;align=left;verticalAlign=top;spacingLeft=4;spacingRight=4;overflow=hidden;rotatable=0;points=[[0,0.5],[1,0.5]];portConstraint=eastwest;" vertex="1" parent="LZpc2RMVWrcLRysx4tXl-20">
          <mxGeometry y="26" width="180" height="26" as="geometry" />
        </mxCell>
        <mxCell id="LZpc2RMVWrcLRysx4tXl-22" value="" style="line;strokeWidth=1;fillColor=none;align=left;verticalAlign=middle;spacingTop=-1;spacingLeft=3;spacingRight=3;rotatable=0;labelPosition=right;points=[];portConstraint=eastwest;" vertex="1" parent="LZpc2RMVWrcLRysx4tXl-20">
          <mxGeometry y="52" width="180" height="8" as="geometry" />
        </mxCell>
        <mxCell id="LZpc2RMVWrcLRysx4tXl-23" value="+ addShape(Shape): void&#xa;+ removeShape (int): void&#xa;+ getAllAre():double&#xa;+ toString():String" style="text;strokeColor=none;fillColor=none;align=left;verticalAlign=top;spacingLeft=4;spacingRight=4;overflow=hidden;rotatable=0;points=[[0,0.5],[1,0.5]];portConstraint=eastwest;" vertex="1" parent="LZpc2RMVWrcLRysx4tXl-20">
          <mxGeometry y="60" width="180" height="70" as="geometry" />
        </mxCell>
      </root>
    </mxGraphModel>
  </diagram>
</mxfile>
